#N canvas 23 25 1421 790 12;
#X obj -30 -30 preset_hub k12 1 %hidden%;
#X obj 120 50 loadbang;
#X msg 120 90 \; pd dsp 1;
#X obj 405 146 s off;
#X obj 400 110 bng 15 250 50 0 empty empty empty 17 7 0 10 #fcfcfc
#000000 #000000 1;
#N canvas 0 182 1440 221 mainpatch 0;
#X obj 0 40 inlet;
#X obj 50 40 inlet;
#X obj 110 40 inlet;
#X obj 160 160 tgl 29 0 empty empty empty 17 7 0 10 #fcfcfc #000000
#000000 0 1 1;
#X obj -130 300 readsf~;
#X obj -80 440 dac~;
#X obj -70 360 *~ 1;
#X obj -20 330 line;
#X obj 50 160 tgl 28 0 empty empty empty 17 7 0 10 #fcfcfc #000000
#000000 0 1 1;
#X obj -40 220 sel 1 0;
#X msg 100 220 1;
#X msg -110 250 open M1.wav \, 1;
#X obj 30 240 r off;
#X obj 100 190 gate;
#X obj 140 80 r mainswitch;
#X obj 280 150 tgl 29 0 empty empty empty 17 7 0 10 #fcfcfc #000000
#000000 0 1 1;
#X obj 50 300 readsf~;
#X obj 90 430 dac~;
#X obj 100 350 *~ 1;
#X obj 150 320 line;
#X obj 140 210 sel 1 0;
#X msg 280 220 1;
#X obj 220 220 r off;
#X obj 240 190 gate;
#X obj 240 80 r mainswitch;
#X obj 390 150 tgl 29 0 empty empty empty 17 7 0 10 #fcfcfc #000000
#000000 0 1 1;
#X obj 210 310 readsf~;
#X obj 240 450 dac~;
#X obj 250 370 *~ 1;
#X obj 300 340 line;
#X obj 320 220 sel 1 0;
#X msg 420 220 1;
#X obj 380 240 r off;
#X obj 340 180 gate;
#X obj 360 80 r mainswitch;
#X obj 490 160 tgl 29 0 empty empty empty 17 7 0 10 #fcfcfc #000000
#000000 0 1 1;
#X obj 340 380 readsf~;
#X obj 390 510 dac~;
#X obj 400 440 *~ 1;
#X obj 450 400 line;
#X obj 400 270 sel 1 0;
#X msg 490 220 1;
#X obj 460 250 r off;
#X obj 420 190 gate;
#X obj 460 80 r mainswitch;
#X obj 600 150 tgl 29 0 empty empty empty 17 7 0 10 #fcfcfc #000000
#000000 0 1 1;
#X obj 540 340 readsf~;
#X obj 570 450 dac~;
#X obj 580 400 *~ 1;
#X obj 640 360 line;
#X obj 520 230 sel 1 0;
#X msg 580 220 1, f 2;
#X obj 620 240 r off;
#X obj 560 190 gate;
#X obj 570 80 r mainswitch;
#X obj 730 150 tgl 29 0 empty empty empty 17 7 0 10 #fcfcfc #000000
#000000 0 1 1;
#X obj 710 320 readsf~;
#X obj 750 450 dac~;
#X obj 760 370 *~ 1;
#X obj 790 320 line;
#X obj 660 220 sel 1 0;
#X msg 740 220 1;
#X obj 780 230 r off;
#X obj 660 180 gate;
#X obj 680 80 r mainswitch;
#X obj 870 160 tgl 30 0 empty empty empty 17 7 0 10 #fcfcfc #000000
#000000 0 1 1;
#X obj 890 330 readsf~;
#X obj 910 440 dac~, f 3;
#X obj 930 390 *~ 1;
#X obj 990 350 line;
#X obj 800 200 sel 1 0;
#X msg 880 220 1;
#X obj 980 250 r off;
#X obj 800 170 gate;
#X obj 800 80 r mainswitch;
#X obj 1030 160 tgl 29 0 empty empty empty 17 7 0 10 #fcfcfc #000000
#000000 1 1 1;
#X obj 1040 330 readsf~;
#X obj 1010 470 dac~;
#X obj 1040 400 *~ 1;
#X obj 1130 350 line;
#X obj 1010 200 sel 1 0;
#X msg 950 220 1;
#X obj 1200 220 r off;
#X obj 940 170 gate;
#X obj 930 80 r mainswitch;
#X obj 1270 330 readsf~;
#X obj 1250 460 dac~;
#X obj 1260 380 *~ 1;
#X obj 1350 350 line;
#X obj 1120 210 sel 1 0;
#X obj 1390 250 r off;
#X obj 1060 170 gate;
#X obj 1030 80 r mainswitch;
#X msg 70 260 open M2+B1.wav \, 1;
#X msg 240 260 open M3.wav \, 1;
#X msg 400 320 open M4.wav \, 1;
#X msg 520 290 open M5+B2.wav \, 1;
#X text 60 130 M1 premier;
#X msg 670 260 open M6.wav \, 1;
#X msg 1030 270 open M8.wav \, 1;
#X msg 1150 260 open S1.wav \, 1;
#X text 280 120 M3;
#X text 402 122 M4;
#X text 480 130 M5+B2;
#X text 600 123 M6;
#X text 720 120 M7+B3;
#X text 870 130 M8;
#X text 170 130 M2+B1;
#X msg 860 270 open M7+B3.wav \, 1;
#X text 1010 120 S1;
#X msg -30 290 1 200;
#X msg 18 290 0 200;
#X msg 190 280 0 200;
#X msg 290 300 1 200;
#X msg 350 300 0 200;
#X msg 440 360 1 200;
#X msg 488 360 0 200;
#X msg 670 320 0 200;
#X msg 750 290 1 200;
#X msg 820 300 0 200;
#X msg 1010 310 0 200;
#X msg 1120 310 1 200;
#X msg 1190 310 0 200;
#X msg 1340 310 1 200;
#X msg 1390 310 0 200;
#X obj 210 20 r one;
#X obj 350 20 r two;
#X obj 400 20 r three;
#X obj 470 20 r four;
#X obj 540 20 r five;
#X obj 600 20 r six;
#X obj 660 20 r seven;
#X obj 720 20 r height;
#X obj 790 20 r nine;
#X msg 200 50 0;
#X msg 340 50 0;
#X msg 400 50 0;
#X msg 450 50 0;
#X msg 535 55 0;
#X msg 590 60 0;
#X msg 650 60 0;
#X msg 700 60 0;
#X msg 760 60 0;
#X text 890 20 Recois les signals des touches raccourci clvier;
#X text 890 50 Envoie un zero au toggle associé a chaque son;
#X msg 140 280 0.5 200;
#X msg 620 320 0.5 200;
#X msg 950 310 0.5 200;
#X connect 0 0 8 0;
#X connect 1 0 3 0;
#X connect 3 0 20 0;
#X connect 4 0 6 0;
#X connect 6 0 5 0;
#X connect 6 0 5 1;
#X connect 7 0 6 1;
#X connect 8 0 9 0;
#X connect 9 0 11 0;
#X connect 9 1 111 0;
#X connect 9 1 13 1;
#X connect 10 0 3 0;
#X connect 11 0 4 0;
#X connect 11 0 110 0;
#X connect 12 0 111 0;
#X connect 13 0 10 0;
#X connect 14 0 13 0;
#X connect 15 0 30 0;
#X connect 16 0 18 0;
#X connect 18 0 17 0;
#X connect 18 0 17 1;
#X connect 19 0 18 1;
#X connect 20 0 93 0;
#X connect 20 1 112 0;
#X connect 20 1 23 1;
#X connect 21 0 15 0;
#X connect 22 0 112 0;
#X connect 23 0 21 0;
#X connect 24 0 23 0;
#X connect 25 0 40 0;
#X connect 26 0 28 0;
#X connect 28 0 27 0;
#X connect 28 0 27 1;
#X connect 29 0 28 1;
#X connect 30 0 94 0;
#X connect 30 1 114 0;
#X connect 30 1 33 1;
#X connect 31 0 25 0;
#X connect 32 0 114 0;
#X connect 33 0 31 0;
#X connect 34 0 33 0;
#X connect 35 0 50 0;
#X connect 36 0 38 0;
#X connect 38 0 37 0;
#X connect 38 0 37 1;
#X connect 39 0 38 1;
#X connect 40 0 95 0;
#X connect 40 1 116 0;
#X connect 40 1 43 1;
#X connect 41 0 35 0;
#X connect 42 0 116 0;
#X connect 43 0 41 0;
#X connect 44 0 43 0;
#X connect 45 0 60 0;
#X connect 46 0 48 0;
#X connect 48 0 47 0;
#X connect 48 0 47 1;
#X connect 49 0 48 1;
#X connect 50 0 96 0;
#X connect 50 1 117 0;
#X connect 50 1 53 1;
#X connect 51 0 45 0;
#X connect 52 0 117 0;
#X connect 53 0 51 0;
#X connect 54 0 53 0;
#X connect 55 0 70 0;
#X connect 56 0 58 0;
#X connect 58 0 57 0;
#X connect 58 0 57 1;
#X connect 59 0 58 1;
#X connect 60 0 98 0;
#X connect 60 1 119 0;
#X connect 60 1 63 1;
#X connect 61 0 55 0;
#X connect 62 0 119 0;
#X connect 63 0 61 0;
#X connect 64 0 63 0;
#X connect 65 0 80 0;
#X connect 66 0 68 0;
#X connect 68 0 67 0;
#X connect 68 0 67 1;
#X connect 69 0 68 1;
#X connect 70 0 108 0;
#X connect 70 1 120 0;
#X connect 70 1 73 1;
#X connect 71 0 65 0;
#X connect 72 0 120 0;
#X connect 73 0 71 0;
#X connect 74 0 73 0;
#X connect 75 0 89 0;
#X connect 76 0 78 0;
#X connect 78 0 77 0;
#X connect 78 0 77 1;
#X connect 79 0 78 1;
#X connect 80 0 99 0;
#X connect 80 1 122 0;
#X connect 80 1 83 1;
#X connect 81 0 75 0;
#X connect 82 0 122 0;
#X connect 83 0 81 0;
#X connect 84 0 83 0;
#X connect 85 0 87 0;
#X connect 87 0 86 0;
#X connect 87 0 86 1;
#X connect 88 0 87 1;
#X connect 89 0 100 0;
#X connect 89 1 91 1;
#X connect 89 1 124 0;
#X connect 90 0 124 0;
#X connect 92 0 91 0;
#X connect 93 0 16 0;
#X connect 93 0 145 0;
#X connect 94 0 26 0;
#X connect 94 0 113 0;
#X connect 95 0 36 0;
#X connect 95 0 115 0;
#X connect 96 0 46 0;
#X connect 96 0 146 0;
#X connect 98 0 56 0;
#X connect 98 0 118 0;
#X connect 99 0 76 0;
#X connect 99 0 121 0;
#X connect 100 0 85 0;
#X connect 100 0 123 0;
#X connect 108 0 66 0;
#X connect 108 0 147 0;
#X connect 110 0 7 0;
#X connect 111 0 7 0;
#X connect 112 0 19 0;
#X connect 113 0 29 0;
#X connect 114 0 29 0;
#X connect 115 0 39 0;
#X connect 116 0 39 0;
#X connect 117 0 49 0;
#X connect 118 0 59 0;
#X connect 119 0 59 0;
#X connect 120 0 69 0;
#X connect 121 0 79 0;
#X connect 122 0 79 0;
#X connect 123 0 88 0;
#X connect 124 0 88 0;
#X connect 125 0 134 0;
#X connect 126 0 135 0;
#X connect 127 0 136 0;
#X connect 128 0 137 0;
#X connect 129 0 138 0;
#X connect 130 0 139 0;
#X connect 131 0 140 0;
#X connect 132 0 141 0;
#X connect 133 0 142 0;
#X connect 134 0 8 0;
#X connect 135 0 3 0;
#X connect 136 0 15 0;
#X connect 137 0 25 0;
#X connect 138 0 35 0;
#X connect 139 0 45 0;
#X connect 140 0 55 0;
#X connect 141 0 65 0;
#X connect 142 0 75 0;
#X connect 145 0 19 0;
#X connect 146 0 49 0;
#X connect 147 0 69 0;
#X coords 0 -1 1 1 1155 107 1 31 118;
#X restore 150 290 pd mainpatch;
#X f 44;
#X obj 581 148 s mainswitch;
#X obj 581 98 tgl 37 0 empty empty empty 17 7 0 10 #fcfcfc #000000
#000000 1 1 1;
#X obj 491 88 loadbang;
#X msg 490 120 1;
#X obj 530 150 sel 0;
#X obj 701 129 key;
#X obj 710 170 sel 32 97 122 101 114 116 121 117 105 111;
#X obj 680 250 s one, f 6;
#X obj 770 230 s two;
#X obj 820 230 s three;
#X obj 890 230 s four;
#X obj 960 230 s five;
#X obj 1020 230 s six;
#X obj 1080 230 s seven;
#X obj 1140 230 s height;
#X obj 1210 230 s nine;
#X obj 690 220 tgl 15 0 empty empty empty 17 7 0 10 #fcfcfc #000000
#000000 1 1 1;
#X obj 740 130 keyup;
#X text 810 120 Touches raccourcis clavier;
#X text 290 410 A;
#X text 410 410 Z;
#X text 520 410 E;
#X text 620 410 R;
#X text 720 410 T;
#X text 860 410 Y;
#X text 990 410 U;
#X text 1150 410 I;
#X text 360 60 envoie un bangpour faire off;
#X text 580 50 Le toggle : Mainswitch;
#X text 320 490 arreter le son peut importe la musique : Appuye (Space)
Arreter un une musique specifique : Appuye (Space) Puis la touche
raccourciePour changer de piste :Appuye sur la touche associer a
la piste courante lueExemple : Pour passer a M4 depuis M3 \, appuye
sur (E).Pour passer d'une musique a une autre qui ne sont pas succesif
: Appuye (Space) \, (Touche raccoucie a la musique courante) \, (Space)
\, (Touche raccourcie au son precedant celui choisis).Exemple : Je
passe de M7+B3 a M3 je fais (Space) +(U)+(Space)+(Z).;
#X text 20 330 click to start >;
#X connect 1 0 2 0;
#X connect 4 0 3 0;
#X connect 7 0 6 0;
#X connect 7 0 10 0;
#X connect 8 0 9 0;
#X connect 9 0 7 0;
#X connect 10 0 4 0;
#X connect 11 0 12 0;
#X connect 12 0 7 0;
#X connect 12 1 22 0;
#X connect 12 2 14 0;
#X connect 12 3 15 0;
#X connect 12 4 16 0;
#X connect 12 5 17 0;
#X connect 12 6 18 0;
#X connect 12 7 19 0;
#X connect 12 8 20 0;
#X connect 12 9 21 0;
#X connect 22 0 13 0;
